<svg width="1400" height="1024" viewBox="0 0 1400 1024" fill="none" xmlns="http://www.w3.org/2000/svg">
<g filter="url(#filter0_d)">
<path fill-rule="evenodd" clip-rule="evenodd" d="M449.592 442.748C448.48 439.06 444.573 436.964 440.864 438.065L394.863 451.736C394.374 451.882 393.909 452.065 393.467 452.283C392.792 451.206 391.869 450.257 390.71 449.527L349.483 423.575C346.65 421.792 342.959 422.272 340.663 424.72C338.004 427.558 338.13 432.027 340.946 434.701L375.87 467.878C376.215 468.205 376.578 468.498 376.957 468.758L375.328 516.25C375.214 519.568 377.521 522.512 380.84 523.285C384.686 524.18 388.537 521.872 389.44 518.131L399.971 474.536C401.074 474.431 402.18 474.112 403.232 473.557L446.168 450.9C449.119 449.343 450.552 445.93 449.592 442.748ZM381.266 464.241C380.896 469.198 384.615 473.516 389.572 473.886C394.528 474.256 398.847 470.537 399.216 465.581C399.586 460.624 395.868 456.306 390.911 455.936C385.954 455.566 381.636 459.284 381.266 464.241Z" fill="#80FFDB"/>
<path fill-rule="evenodd" clip-rule="evenodd" d="M97.4811 342.463C93.8862 343.846 92.087 347.899 93.4616 351.516L110.518 396.372C110.699 396.848 110.917 397.299 111.167 397.723C110.144 398.476 109.266 399.467 108.624 400.678L85.8127 443.722C84.2455 446.68 84.9982 450.325 87.6109 452.432C90.6387 454.873 95.0857 454.414 97.5432 451.407L128.028 414.11C128.329 413.743 128.594 413.358 128.825 412.961L176.307 411.051C179.624 410.918 182.389 408.398 182.912 405.031C183.518 401.128 180.931 397.46 177.132 396.838L132.875 389.581C132.687 388.489 132.287 387.41 131.655 386.402L105.865 345.271C104.093 342.445 100.584 341.27 97.4811 342.463ZM124 409C128.971 409 133 404.971 133 400C133 395.029 128.971 391 124 391C119.029 391 115 395.029 115 400C115 404.971 119.029 409 124 409Z" fill="#80FFDB"/>
<path fill-rule="evenodd" clip-rule="evenodd" d="M299.875 293.158C296.582 291.16 292.275 292.215 290.255 295.514L265.2 336.444C264.934 336.879 264.71 337.327 264.528 337.784C263.306 337.435 261.985 337.346 260.634 337.579L212.629 345.859C209.33 346.429 206.907 349.254 206.838 352.609C206.759 356.498 209.841 359.735 213.723 359.84L261.876 361.147C262.351 361.159 262.817 361.134 263.272 361.074L293.825 397.471C295.959 400.014 299.644 400.659 302.628 399.014C306.086 397.107 307.405 392.816 305.574 389.43L284.246 349.978C284.996 349.161 285.605 348.185 286.016 347.069L302.782 301.508C303.934 298.377 302.717 294.882 299.875 293.158ZM263.455 354.834C266.495 358.766 272.148 359.49 276.08 356.449C280.012 353.409 280.736 347.757 277.696 343.824C274.656 339.892 269.003 339.169 265.071 342.209C261.138 345.249 260.415 350.901 263.455 354.834Z" fill="#80FFDB"/>
<path fill-rule="evenodd" clip-rule="evenodd" d="M1399.59 724.748C1398.48 721.06 1394.57 718.964 1390.86 720.065L1344.86 733.736C1344.37 733.882 1343.91 734.065 1343.47 734.283C1342.79 733.206 1341.87 732.257 1340.71 731.527L1299.48 705.575C1296.65 703.792 1292.96 704.272 1290.66 706.72C1288 709.558 1288.13 714.027 1290.95 716.701L1325.87 749.878C1326.21 750.205 1326.58 750.498 1326.96 750.758L1325.33 798.25C1325.21 801.568 1327.52 804.512 1330.84 805.285C1334.69 806.18 1338.54 803.872 1339.44 800.131L1349.97 756.536C1351.07 756.431 1352.18 756.112 1353.23 755.557L1396.17 732.9C1399.12 731.343 1400.55 727.93 1399.59 724.748ZM1331.27 746.241C1330.9 751.198 1334.61 755.516 1339.57 755.886C1344.53 756.256 1348.85 752.537 1349.22 747.581C1349.59 742.624 1345.87 738.306 1340.91 737.936C1335.95 737.566 1331.64 741.284 1331.27 746.241Z" fill="#80FFDB"/>
<path fill-rule="evenodd" clip-rule="evenodd" d="M1047.48 624.463C1043.89 625.847 1042.09 629.899 1043.46 633.516L1060.52 678.372C1060.7 678.848 1060.92 679.299 1061.17 679.723C1060.14 680.476 1059.27 681.467 1058.62 682.678L1035.81 725.722C1034.25 728.68 1035 732.325 1037.61 734.432C1040.64 736.873 1045.09 736.414 1047.54 733.407L1078.03 696.11C1078.33 695.743 1078.59 695.358 1078.83 694.961L1126.31 693.051C1129.62 692.918 1132.39 690.398 1132.91 687.031C1133.52 683.128 1130.93 679.46 1127.13 678.838L1082.87 671.581C1082.69 670.489 1082.29 669.41 1081.66 668.402L1055.87 627.271C1054.09 624.445 1050.58 623.27 1047.48 624.463ZM1074 691C1078.97 691 1083 686.971 1083 682C1083 677.029 1078.97 673 1074 673C1069.03 673 1065 677.029 1065 682C1065 686.971 1069.03 691 1074 691Z" fill="#80FFDB"/>
<path fill-rule="evenodd" clip-rule="evenodd" d="M1249.88 575.158C1246.58 573.16 1242.28 574.215 1240.26 577.514L1215.2 618.444C1214.93 618.879 1214.71 619.327 1214.53 619.784C1213.31 619.435 1211.98 619.346 1210.63 619.579L1162.63 627.859C1159.33 628.429 1156.91 631.254 1156.84 634.609C1156.76 638.498 1159.84 641.735 1163.72 641.84L1211.88 643.147C1212.35 643.159 1212.82 643.134 1213.27 643.074L1243.83 679.471C1245.96 682.014 1249.64 682.659 1252.63 681.014C1256.09 679.107 1257.41 674.816 1255.57 671.43L1234.25 631.978C1235 631.161 1235.6 630.185 1236.02 629.069L1252.78 583.508C1253.93 580.377 1252.72 576.882 1249.88 575.158ZM1213.46 636.834C1216.5 640.766 1222.15 641.49 1226.08 638.449C1230.01 635.409 1230.74 629.757 1227.7 625.825C1224.66 621.892 1219 621.169 1215.07 624.209C1211.14 627.249 1210.41 632.901 1213.46 636.834Z" fill="#80FFDB"/>
<path d="M1073.07 381.815C1069.17 377.909 1069.17 371.578 1073.07 367.673L1103.48 337.267L1140.95 374.744L1103.48 412.22L1073.07 381.815Z" fill="#80FFDB"/>
<path d="M1109.13 417.877L1146.61 380.401L1184.09 417.877L1146.61 455.354L1109.13 417.877Z" fill="#80FFDB"/>
<path d="M1152.27 461.011L1189.74 423.534L1227.22 461.011L1196.81 491.416C1192.91 495.322 1186.58 495.322 1182.67 491.416L1152.27 461.011Z" fill="#80FFDB"/>
<path d="M1109.13 331.61L1146.61 294.133L1184.09 331.61L1146.61 369.087L1109.13 331.61Z" fill="#80FFDB"/>
<path d="M1152.27 374.744L1189.74 337.267L1227.22 374.744L1189.74 412.22L1152.27 374.744Z" fill="#80FFDB"/>
<path d="M1195.4 417.877L1232.88 380.401L1270.35 417.877L1232.88 455.354L1195.4 417.877Z" fill="#80FFDB"/>
<path d="M1152.27 288.477L1182.67 258.071C1186.58 254.166 1192.91 254.166 1196.81 258.071L1227.22 288.477L1189.74 325.953L1152.27 288.477Z" fill="#80FFDB"/>
<path d="M1195.4 331.61L1232.88 294.133L1270.35 331.61L1232.88 369.087L1195.4 331.61Z" fill="#80FFDB"/>
<path d="M1238.53 374.744L1276.01 337.267L1306.42 367.673C1310.32 371.578 1310.32 377.909 1306.42 381.815L1276.01 412.22L1238.53 374.744Z" fill="#80FFDB"/>
<path d="M170.071 -19.1853C166.166 -23.0905 166.166 -29.4222 170.071 -33.3274L200.477 -63.733L237.953 -26.2564L200.477 11.2203L170.071 -19.1853Z" fill="#80FFDB"/>
<path d="M206.133 16.8772L243.61 -20.5995L281.087 16.8772L243.61 54.3538L206.133 16.8772Z" fill="#80FFDB"/>
<path d="M249.267 60.0107L286.744 22.534L324.22 60.0107L293.815 90.4163C289.909 94.3215 283.578 94.3215 279.673 90.4163L249.267 60.0107Z" fill="#80FFDB"/>
<path d="M206.133 -69.3899L243.61 -106.867L281.087 -69.3899L243.61 -31.9132L206.133 -69.3899Z" fill="#80FFDB"/>
<path d="M249.267 -26.2564L286.744 -63.733L324.22 -26.2564L286.744 11.2203L249.267 -26.2564Z" fill="#80FFDB"/>
<path d="M292.401 16.8772L329.877 -20.5995L367.354 16.8772L329.877 54.3538L292.401 16.8772Z" fill="#80FFDB"/>
<path d="M249.267 -112.523L279.673 -142.929C283.578 -146.834 289.909 -146.834 293.815 -142.929L324.22 -112.523L286.744 -75.0467L249.267 -112.523Z" fill="#80FFDB"/>
<path d="M292.401 -69.3899L329.877 -106.867L367.354 -69.3899L329.877 -31.9132L292.401 -69.3899Z" fill="#80FFDB"/>
<path d="M335.534 -26.2564L373.011 -63.733L403.416 -33.3274C407.322 -29.4222 407.322 -23.0905 403.416 -19.1853L373.011 11.2203L335.534 -26.2564Z" fill="#80FFDB"/>
<path d="M481.131 811.179C485.382 815.134 485.382 821.866 481.131 825.821L426.812 876.359C420.416 882.31 410 877.774 410 869.037V767.962C410 759.226 420.416 754.69 426.812 760.641L481.131 811.179Z" fill="#80FFDB"/>
</g>
<defs>
<filter id="filter0_d" x="-119" y="-145.858" width="1518.89" height="1228.92" filterUnits="userSpaceOnUse" color-interpolation-filters="sRGB">
<feFlood flood-opacity="0" result="BackgroundImageFix"/>
<feColorMatrix in="SourceAlpha" type="matrix" values="0 0 0 0 0 0 0 0 0 0 0 0 0 0 0 0 0 0 127 0"/>
<feOffset dx="-200" dy="200"/>
<feGaussianBlur stdDeviation="2"/>
<feColorMatrix type="matrix" values="0 0 0 0 0.196078 0 0 0 0 0.227451 0 0 0 0 0.8 0 0 0 0.1 0"/>
<feBlend mode="normal" in2="BackgroundImageFix" result="effect1_dropShadow"/>
<feBlend mode="normal" in="SourceGraphic" in2="effect1_dropShadow" result="shape"/>
</filter>
</defs>
</svg>
