<svg width="32" height="32" viewBox="0 0 32 32" fill="none" xmlns="http://www.w3.org/2000/svg">
<path d="M12.0952 17.0476C12.0952 18.9505 10.8965 20.0952 9.85711 20.0952C8.81775 20.0952 7.61902 18.9505 7.61902 17.0476C7.61902 15.1447 8.81775 14 9.85711 14C10.8965 14 12.0952 15.1447 12.0952 17.0476Z" stroke="#72EFF6" stroke-width="2"/>
<path d="M14.7143 26.8631C14.7143 25.0189 12.5397 23.5238 9.85714 23.5238C7.17462 23.5238 5 25.0189 5 26.8631" stroke="#72EFF6" stroke-width="2" stroke-linecap="round"/>
<path d="M23.8 8.6C24.1314 8.15817 24.0418 7.53137 23.6 7.2C23.1582 6.86863 22.5314 6.95817 22.2 7.4L23.8 8.6ZM20 12L19.2 11.4C18.9727 11.703 18.9362 12.1084 19.1056 12.4472C19.275 12.786 19.6212 13 20 13V12ZM24 12L24.848 12.53C25.0407 12.2217 25.0509 11.8332 24.8746 11.5152C24.6984 11.1973 24.3635 11 24 11V12ZM20.652 15.47C20.3593 15.9383 20.5017 16.5553 20.97 16.848C21.4383 17.1407 22.0553 16.9983 22.348 16.53L20.652 15.47ZM22.2 7.4L19.2 11.4L20.8 12.6L23.8 8.6L22.2 7.4ZM20 13H24V11H20V13ZM23.152 11.47L20.652 15.47L22.348 16.53L24.848 12.53L23.152 11.47Z" fill="white"/>
<circle cx="22" cy="12" r="7" stroke="#72EFF6" stroke-width="2"/>
</svg>
