<svg width="32" height="32" viewBox="0 0 32 32" fill="none" xmlns="http://www.w3.org/2000/svg">
<rect x="4" y="8" width="5" height="15" rx="2.5" stroke="#72EFF6" stroke-width="2"/>
<path d="M13 23V8L18 23V8" stroke="white" stroke-width="2" stroke-linecap="round" stroke-linejoin="round"/>
<path d="M23 13.5C22.7217 13.117 22.111 11.9369 22.0369 11.4693C21.9629 11.0017 22.0005 10.5232 22.1468 10.0729C22.2931 9.62269 22.5439 9.21345 22.8787 8.87868C23.2134 8.54391 23.6227 8.29313 24.0729 8.14683C24.5232 8.00053 25.0017 7.96287 25.4693 8.03694C25.9369 8.111 26.3803 8.29467 26.7634 8.57295C27.1464 8.85123 27.4581 9.2162 27.673 9.63803C27.888 10.0599 28 10.5266 28 11" stroke="#72EFF6" stroke-width="2" stroke-linecap="round" stroke-linejoin="round"/>
<path d="M22 20C22 20.4734 22.112 20.9401 22.327 21.362C22.5419 21.7838 22.8536 22.1488 23.2366 22.4271C23.6197 22.7053 24.0631 22.889 24.5307 22.9631C24.9983 23.0371 25.4768 22.9995 25.9271 22.8532C26.3773 22.7069 26.7866 22.4561 27.1213 22.1213C27.4561 21.7866 27.7069 21.3773 27.8532 20.9271C27.9995 20.4768 28.0371 19.9983 27.9631 19.5307C27.889 19.0631 27.7053 18.6197 27.4271 18.2366L23 13.5" stroke="#72EFF6" stroke-width="2" stroke-linecap="round" stroke-linejoin="round"/>
</svg>
