<svg width="32" height="32" viewBox="0 0 32 32" fill="none" xmlns="http://www.w3.org/2000/svg">
<path d="M15.4999 13L15.4999 12L14.4999 12L14.4999 13L15.4999 13ZM22 13L22 14L22 14L22 13ZM20.4999 17L20.4999 16L19.4999 16L19.4999 17L20.4999 17ZM18.4999 21L18.4999 20L18.4999 20L18.4999 21ZM17.9999 21L17.9999 20L16.9999 20L16.9999 21L17.9999 21ZM17.9999 22.5L18.9999 22.5L18.9999 22.5L17.9999 22.5ZM15.9999 24.5L15.9999 23.5L15.9999 24.5ZM10.4999 24.5L10.4999 23.5L10.2344 23.5L10.0038 23.6318L10.4999 24.5ZM6.5038 25.6318C6.02429 25.9058 5.85769 26.5166 6.1317 26.9961C6.40571 27.4757 7.01656 27.6423 7.49608 27.3682L6.5038 25.6318ZM11.2317 9.89989L10.5976 9.12666L10.5976 9.12666L11.2317 9.89989ZM14.2147 7.45354L13.5806 6.68031L14.2147 7.45354ZM20 7L20 8L20.3028 8L20.5547 7.83205L20 7ZM25.0547 4.83205C25.5142 4.5257 25.6384 3.90483 25.332 3.4453C25.0257 2.98577 24.4048 2.8616 23.9453 3.16795L25.0547 4.83205ZM9.49994 14.5C9.49994 14.9596 9.59047 15.4148 9.76637 15.8394L11.6141 15.074C11.5387 14.892 11.4999 14.697 11.4999 14.5L9.49994 14.5ZM9.76637 15.8394C9.94226 16.264 10.2001 16.6499 10.5251 16.9749L11.9393 15.5607C11.8 15.4214 11.6895 15.256 11.6141 15.074L9.76637 15.8394ZM10.5251 16.9749C10.8501 17.2999 11.2359 17.5577 11.6606 17.7336L12.4259 15.8858C12.2439 15.8104 12.0786 15.7 11.9393 15.5607L10.5251 16.9749ZM11.6606 17.7336C12.0852 17.9095 12.5403 18 12.9999 18L12.9999 16C12.803 16 12.6079 15.9612 12.4259 15.8858L11.6606 17.7336ZM12.9999 18C13.4596 18 13.9147 17.9095 14.3393 17.7336L13.574 15.8858C13.392 15.9612 13.1969 16 12.9999 16L12.9999 18ZM14.3393 17.7336C14.764 17.5577 15.1498 17.2999 15.4748 16.9749L14.0606 15.5607C13.9213 15.7 13.756 15.8104 13.574 15.8858L14.3393 17.7336ZM15.4748 16.9749C15.7998 16.6499 16.0576 16.264 16.2335 15.8394L14.3858 15.074C14.3104 15.256 14.1999 15.4214 14.0606 15.5607L15.4748 16.9749ZM16.2335 15.8394C16.4094 15.4148 16.4999 14.9596 16.4999 14.5L14.4999 14.5C14.4999 14.697 14.4611 14.892 14.3858 15.074L16.2335 15.8394ZM16.4999 14.5L16.4999 13L14.4999 13L14.4999 14.5L16.4999 14.5ZM15.4999 14L22 14L22 12L15.4999 12L15.4999 14ZM22 16L20.4999 16L20.4999 18L22 18L22 16ZM19.4999 17L19.4999 19L21.4999 19L21.4999 17L19.4999 17ZM18.4999 20L17.9999 20L17.9999 22L18.4999 22L18.4999 20ZM16.9999 21L16.9999 22.5L18.9999 22.5L18.9999 21L16.9999 21ZM15.9999 23.5L10.4999 23.5L10.4999 25.5L15.9999 25.5L15.9999 23.5ZM10.0038 23.6318L6.5038 25.6318L7.49608 27.3682L10.9961 25.3682L10.0038 23.6318ZM11.4999 14.5L11.4999 11.4464L9.49994 11.4464L9.49994 14.5L11.4999 14.5ZM11.8658 10.6731L14.8488 8.22677L13.5806 6.68031L10.5976 9.12666L11.8658 10.6731ZM15.4829 8L20 8L20 6L15.4829 6L15.4829 8ZM20.5547 7.83205L25.0547 4.83205L23.9453 3.16795L19.4453 6.16795L20.5547 7.83205ZM14.8488 8.22677C15.0276 8.08014 15.2517 8 15.4829 8L15.4829 6C14.7892 6 14.117 6.24041 13.5806 6.68031L14.8488 8.22677ZM11.4999 11.4464C11.4999 11.1468 11.6342 10.8631 11.8658 10.6731L10.5976 9.12666C9.90275 9.69648 9.49994 10.5478 9.49994 11.4464L11.4999 11.4464ZM19.4999 19C19.4999 19.5523 19.0522 20 18.4999 20L18.4999 22C20.1568 22 21.4999 20.6569 21.4999 19L19.4999 19ZM23 15C23 15.5523 22.5523 16 22 16L22 18C23.6569 18 25 16.6569 25 15L23 15ZM16.9999 22.5C16.9999 23.0523 16.5522 23.5 15.9999 23.5L15.9999 25.5C17.6568 25.5 18.9999 24.1569 18.9999 22.5L16.9999 22.5ZM22 14C22.5523 14 23 14.4477 23 15L25 15C25 13.3431 23.6568 12 22 12L22 14Z" fill="white"/>
<path d="M6.5 18L6.99614 18.8682L7.5 18.5803L7.5 18L6.5 18ZM2.50386 19.1318C2.02434 19.4058 1.85774 20.0166 2.13175 20.4961C2.40576 20.9757 3.01662 21.1423 3.49614 20.8682L2.50386 19.1318ZM6.5 16L7.5 16L7.5 16L6.5 16ZM7.3 14.4L6.7 13.6L6.7 13.6L7.3 14.4ZM6.00386 17.1318L2.50386 19.1318L3.49614 20.8682L6.99614 18.8682L6.00386 17.1318ZM7.5 18L7.5 16L5.5 16L5.5 18L7.5 18ZM7.9 15.2L11.1 12.8L9.9 11.2L6.7 13.6L7.9 15.2ZM7.5 16C7.5 15.6852 7.64819 15.3889 7.9 15.2L6.7 13.6C5.94458 14.1666 5.5 15.0557 5.5 16L7.5 16Z" fill="white"/>
<path d="M30.5547 11.8321C31.0142 11.5257 31.1384 10.9048 30.832 10.4453C30.5257 9.98577 29.9048 9.8616 29.4453 10.1679L30.5547 11.8321ZM24.5547 15.8321L30.5547 11.8321L29.4453 10.1679L23.4453 14.168L24.5547 15.8321Z" fill="white"/>
<path d="M24.5 4L30 11" stroke="#72EFF6" stroke-width="2" stroke-linecap="round"/>
<path d="M3 20L7 26.5" stroke="#72EFF6" stroke-width="2" stroke-linecap="round"/>
</svg>
