<svg width="32" height="32" viewBox="0 0 32 32" fill="none" xmlns="http://www.w3.org/2000/svg">
<path d="M13.8 8.6C14.1314 8.15817 14.0418 7.53137 13.6 7.2C13.1582 6.86863 12.5314 6.95817 12.2 7.4L13.8 8.6ZM10 12L9.2 11.4C8.97274 11.703 8.93618 12.1084 9.10557 12.4472C9.27496 12.786 9.62123 13 10 13V12ZM14 12L14.848 12.53C15.0407 12.2217 15.0509 11.8332 14.8746 11.5152C14.6984 11.1973 14.3635 11 14 11V12ZM10.652 15.47C10.3593 15.9383 10.5017 16.5553 10.97 16.848C11.4383 17.1407 12.0553 16.9983 12.348 16.53L10.652 15.47ZM12.2 7.4L9.2 11.4L10.8 12.6L13.8 8.6L12.2 7.4ZM10 13H14V11H10V13ZM13.152 11.47L10.652 15.47L12.348 16.53L14.848 12.53L13.152 11.47Z" fill="#72EFF6"/>
<circle cx="12" cy="12" r="7" stroke="white" stroke-width="2"/>
<path d="M24.9323 4.92613C25.0991 4.36008 25.9009 4.36008 26.0677 4.92613C26.1743 5.28781 26.5874 5.45892 26.9186 5.27856C27.4368 4.99628 28.0037 5.56321 27.7214 6.08144C27.5411 6.41257 27.7122 6.82567 28.0739 6.93228C28.6399 7.09912 28.6399 7.90088 28.0739 8.06772C27.7122 8.17433 27.5411 8.58743 27.7214 8.91856C28.0037 9.43679 27.4368 10.0037 26.9186 9.72144C26.5874 9.54108 26.1743 9.71219 26.0677 10.0739C25.9009 10.6399 25.0991 10.6399 24.9323 10.0739C24.8257 9.71219 24.4126 9.54108 24.0814 9.72144C23.5632 10.0037 22.9963 9.43679 23.2786 8.91856C23.4589 8.58743 23.2878 8.17433 22.9261 8.06772C22.3601 7.90088 22.3601 7.09912 22.9261 6.93228C23.2878 6.82567 23.4589 6.41257 23.2786 6.08144C22.9963 5.56321 23.5632 4.99628 24.0814 5.27856C24.4126 5.45892 24.8257 5.28781 24.9323 4.92613Z" fill="white"/>
<mask id="path-4-inside-1_82_541" fill="white">
<path fill-rule="evenodd" clip-rule="evenodd" d="M24.7506 21H24.0106C23.4662 21 23.0182 21.435 22.9716 21.9774C22.8803 23.0404 22.6508 24.7913 22.0805 26.3122C21.7835 27.1043 22.3428 28.1666 23.1887 28.1666H24.7506H25.9791H27.541C28.387 28.1666 28.9463 27.1043 28.6492 26.3122C28.0789 24.7913 27.8494 23.0404 27.7581 21.9774C27.7116 21.435 27.2636 21 26.7192 21H25.9791H24.7506Z"/>
</mask>
<path d="M24.0106 23H24.7506V19H24.0106V23ZM23.9532 27.0144C24.6199 25.2365 24.868 23.2699 24.9643 22.1485L20.9789 21.8062C20.8927 22.8109 20.6818 24.3462 20.2079 25.61L23.9532 27.0144ZM24.7506 26.1666H23.1887V30.1666H24.7506V26.1666ZM24.7506 30.1666H25.9791V26.1666H24.7506V30.1666ZM25.9791 30.1666H27.541V26.1666H25.9791V30.1666ZM30.5219 25.61C30.048 24.3462 29.8371 22.8109 29.7508 21.8062L25.7655 22.1485C25.8618 23.2699 26.1098 25.2365 26.7766 27.0144L30.5219 25.61ZM26.7192 19H25.9791V23H26.7192V19ZM25.9791 19H24.7506V23H25.9791V19ZM29.7508 21.8062C29.6207 20.2916 28.3631 19 26.7192 19V23C26.164 23 25.8024 22.5783 25.7655 22.1485L29.7508 21.8062ZM20.2079 25.61C19.8181 26.6494 20.015 27.7337 20.4697 28.5291C20.9284 29.3312 21.8576 30.1666 23.1887 30.1666V26.1666C23.674 26.1666 23.9006 26.4708 23.9423 26.5438C23.9801 26.61 24.046 26.767 23.9532 27.0144L20.2079 25.61ZM27.541 30.1666C28.8722 30.1666 29.8014 29.3312 30.26 28.5291C30.7147 27.7337 30.9117 26.6494 30.5219 25.61L26.7766 27.0144C26.6838 26.767 26.7496 26.61 26.7875 26.5438C26.8292 26.4708 27.0558 26.1666 27.541 26.1666V30.1666ZM24.0106 19C22.3666 19 21.109 20.2916 20.9789 21.8062L24.9643 22.1485C24.9274 22.5783 24.5657 23 24.0106 23V19Z" fill="#72EFF6" mask="url(#path-4-inside-1_82_541)"/>
<mask id="path-6-inside-2_82_541" fill="white">
<path fill-rule="evenodd" clip-rule="evenodd" d="M15.7506 21H15.0106C14.4662 21 14.0182 21.435 13.9716 21.9774C13.8803 23.0404 13.6508 24.7913 13.0805 26.3122C12.7835 27.1043 13.3428 28.1666 14.1887 28.1666H15.7506H16.9791H18.541C19.387 28.1666 19.9463 27.1043 19.6492 26.3122C19.0789 24.7913 18.8494 23.0404 18.7581 21.9774C18.7116 21.435 18.2636 21 17.7192 21H16.9791H15.7506Z"/>
</mask>
<path d="M15.0106 23H15.7506V19H15.0106V23ZM14.9532 27.0144C15.6199 25.2365 15.868 23.2699 15.9643 22.1485L11.9789 21.8062C11.8927 22.8109 11.6818 24.3462 11.2079 25.61L14.9532 27.0144ZM15.7506 26.1666H14.1887V30.1666H15.7506V26.1666ZM15.7506 30.1666H16.9791V26.1666H15.7506V30.1666ZM16.9791 30.1666H18.541V26.1666H16.9791V30.1666ZM21.5219 25.61C21.048 24.3462 20.8371 22.8109 20.7508 21.8062L16.7655 22.1485C16.8618 23.2699 17.1098 25.2365 17.7766 27.0144L21.5219 25.61ZM17.7192 19H16.9791V23H17.7192V19ZM16.9791 19H15.7506V23H16.9791V19ZM20.7508 21.8062C20.6207 20.2916 19.3631 19 17.7192 19V23C17.164 23 16.8024 22.5783 16.7655 22.1485L20.7508 21.8062ZM11.2079 25.61C10.8181 26.6494 11.015 27.7337 11.4697 28.5291C11.9284 29.3312 12.8576 30.1666 14.1887 30.1666V26.1666C14.674 26.1666 14.9006 26.4708 14.9423 26.5438C14.9801 26.61 15.046 26.767 14.9532 27.0144L11.2079 25.61ZM18.541 30.1666C19.8722 30.1666 20.8014 29.3312 21.26 28.5291C21.7147 27.7337 21.9117 26.6494 21.5219 25.61L17.7766 27.0144C17.6838 26.767 17.7496 26.61 17.7875 26.5438C17.8292 26.4708 18.0558 26.1666 18.541 26.1666V30.1666ZM15.0106 19C13.3666 19 12.109 20.2916 11.9789 21.8062L15.9643 22.1485C15.9274 22.5783 15.5657 23 15.0106 23V19Z" fill="#72EFF6" mask="url(#path-6-inside-2_82_541)"/>
<mask id="path-8-inside-3_82_541" fill="white">
<path fill-rule="evenodd" clip-rule="evenodd" d="M6.75064 21H6.0106C5.46618 21 5.0182 21.435 4.97161 21.9774C4.88032 23.0404 4.65085 24.7913 4.08053 26.3122C3.78351 27.1043 4.3428 28.1666 5.18874 28.1666H6.75064H7.97912H9.54102C10.387 28.1666 10.9463 27.1043 10.6492 26.3122C10.0789 24.7913 9.84944 23.0404 9.75815 21.9774C9.71156 21.435 9.26358 21 8.71916 21H7.97912H6.75064Z"/>
</mask>
<path d="M6.0106 23H6.75064V19H6.0106V23ZM5.9532 27.0144C6.61991 25.2365 6.86797 23.2699 6.96428 22.1485L2.97895 21.8062C2.89267 22.8109 2.68178 24.3462 2.20787 25.61L5.9532 27.0144ZM6.75064 26.1666H5.18874V30.1666H6.75064V26.1666ZM6.75064 30.1666H7.97912V26.1666H6.75064V30.1666ZM7.97912 30.1666H9.54102V26.1666H7.97912V30.1666ZM12.5219 25.61C12.048 24.3462 11.8371 22.8109 11.7508 21.8062L7.76548 22.1485C7.86179 23.2699 8.10985 25.2365 8.77656 27.0144L12.5219 25.61ZM8.71916 19H7.97912V23H8.71916V19ZM7.97912 19H6.75064V23H7.97912V19ZM11.7508 21.8062C11.6207 20.2916 10.3631 19 8.71916 19V23C8.16402 23 7.80239 22.5783 7.76548 22.1485L11.7508 21.8062ZM2.20787 25.61C1.81807 26.6494 2.01503 27.7337 2.46975 28.5291C2.92837 29.3312 3.85757 30.1666 5.18874 30.1666V26.1666C5.67398 26.1666 5.90056 26.4708 5.9423 26.5438C5.98014 26.61 6.04597 26.767 5.9532 27.0144L2.20787 25.61ZM9.54102 30.1666C10.8722 30.1666 11.8014 29.3312 12.26 28.5291C12.7147 27.7337 12.9117 26.6494 12.5219 25.61L8.77656 27.0144C8.68379 26.767 8.74962 26.61 8.78746 26.5438C8.8292 26.4708 9.05579 26.1666 9.54102 26.1666V30.1666ZM6.0106 19C4.36663 19 3.10903 20.2916 2.97895 21.8062L6.96428 22.1485C6.92737 22.5783 6.56574 23 6.0106 23V19Z" fill="#72EFF6" mask="url(#path-8-inside-3_82_541)"/>
</svg>
