<svg width="32" height="32" viewBox="0 0 32 32" fill="none" xmlns="http://www.w3.org/2000/svg">
<path d="M25.4856 11.3742C25.9684 11.1059 26.1424 10.4971 25.8742 10.0144C25.6059 9.53157 24.9971 9.35763 24.5144 9.62584L25.4856 11.3742ZM7.48564 9.62584C7.00286 9.35763 6.39406 9.53157 6.12584 10.0144C5.85763 10.4971 6.03157 11.1059 6.51436 11.3742L7.48564 9.62584ZM16.9713 14.9604L16.4856 14.0862L16.9713 14.9604ZM15.0287 14.9604L15.5144 14.0862L15.0287 14.9604ZM17.4569 15.8346L25.4856 11.3742L24.5144 9.62584L16.4856 14.0862L17.4569 15.8346ZM15.5144 14.0862L7.48564 9.62584L6.51436 11.3742L14.5431 15.8346L15.5144 14.0862ZM16.4856 14.0862C16.1836 14.254 15.8164 14.254 15.5144 14.0862L14.5431 15.8346C15.4491 16.3379 16.5509 16.3379 17.4569 15.8346L16.4856 14.0862Z" fill="#72EFF6"/>
<path d="M15.5 5.44338C15.8094 5.26474 16.1906 5.26474 16.5 5.44338L24.8923 10.2887C25.2017 10.4673 25.3923 10.7974 25.3923 11.1547V20.8453C25.3923 21.2026 25.2017 21.5327 24.8923 21.7113L16.5 26.5566C16.1906 26.7353 15.8094 26.7353 15.5 26.5566L7.1077 21.7113C6.7983 21.5327 6.6077 21.2026 6.6077 20.8453V11.1547C6.6077 10.7974 6.79829 10.4673 7.1077 10.2887L15.5 5.44338Z" stroke="white" stroke-width="2"/>
</svg>
