<svg width="32" height="32" viewBox="0 0 32 32" fill="none" xmlns="http://www.w3.org/2000/svg">
<path d="M12.2367 16.4827C12.846 15.7084 14.4541 14.5054 16.0124 15.8872C17.5707 17.2691 19.4956 15.883 20.2633 15.0173" stroke="white" stroke-width="2" stroke-linecap="round"/>
<path d="M16 4V10" stroke="#72EFF6" stroke-width="2" stroke-linecap="round"/>
<path d="M16 28.5L16 22.5" stroke="#72EFF6" stroke-width="2" stroke-linecap="round"/>
<path d="M12.5 7L16 10.5L19.5 7" stroke="#72EFF6" stroke-width="2" stroke-linecap="round"/>
<path d="M19.5 25.5L16 22L12.5 25.5" stroke="#72EFF6" stroke-width="2" stroke-linecap="round"/>
<path d="M27.8 12.6C28.1314 12.1582 28.0418 11.5314 27.6 11.2C27.1582 10.8686 26.5314 10.9582 26.2 11.4L27.8 12.6ZM24 16L23.2 15.4C22.9727 15.703 22.9362 16.1084 23.1056 16.4472C23.275 16.786 23.6212 17 24 17V16ZM28 16L28.848 16.53C29.0407 16.2217 29.0509 15.8332 28.8746 15.5152C28.6984 15.1973 28.3635 15 28 15V16ZM24.652 19.47C24.3593 19.9383 24.5017 20.5553 24.97 20.848C25.4383 21.1407 26.0553 20.9983 26.348 20.53L24.652 19.47ZM26.2 11.4L23.2 15.4L24.8 16.6L27.8 12.6L26.2 11.4ZM24 17H28V15H24V17ZM27.152 15.47L24.652 19.47L26.348 20.53L28.848 16.53L27.152 15.47Z" fill="#72EFF6"/>
<path d="M7.8 12.6C8.13137 12.1582 8.04183 11.5314 7.6 11.2C7.15817 10.8686 6.53137 10.9582 6.2 11.4L7.8 12.6ZM4 16L3.2 15.4C2.97274 15.703 2.93618 16.1084 3.10557 16.4472C3.27496 16.786 3.62123 17 4 17V16ZM8 16L8.848 16.53C9.04067 16.2217 9.05087 15.8332 8.87464 15.5152C8.69842 15.1973 8.36353 15 8 15V16ZM4.652 19.47C4.35929 19.9383 4.50166 20.5553 4.97 20.848C5.43834 21.1407 6.05529 20.9983 6.348 20.53L4.652 19.47ZM6.2 11.4L3.2 15.4L4.8 16.6L7.8 12.6L6.2 11.4ZM4 17H8V15H4V17ZM7.152 15.47L4.652 19.47L6.348 20.53L8.848 16.53L7.152 15.47Z" fill="#72EFF6"/>
</svg>
