<svg width="16" height="16" viewBox="0 0 16 16" fill="none" xmlns="http://www.w3.org/2000/svg">
<path d="M14.29 12.5712C13.8969 12.1946 13.5142 11.8073 13.1425 11.4095C12.8302 11.0922 12.6422 10.8614 12.6422 10.8614L10.2917 9.73917C11.2327 8.67203 11.7521 7.29828 11.7524 5.87556C11.7524 2.63645 9.11647 0 5.87618 0C2.63589 0 0 2.63645 0 5.87556C0 9.11468 2.63589 11.7511 5.87618 11.7511C7.35614 11.7511 8.70514 11.1971 9.74019 10.2915L10.8625 12.6417C10.8625 12.6417 11.0934 12.8297 11.4107 13.142C11.7356 13.4466 12.1629 13.8588 12.5725 14.2894L13.7125 15.4578L14.2195 16L16 14.2197L15.4577 13.7127C15.1396 13.4005 14.7148 12.9858 14.29 12.5712ZM5.87618 10.0724C3.5618 10.0724 1.67891 8.1897 1.67891 5.87556C1.67891 3.56143 3.5618 1.67873 5.87618 1.67873C8.19056 1.67873 10.0735 3.56143 10.0735 5.87556C10.0735 8.1897 8.19056 10.0724 5.87618 10.0724Z" fill="#05358F"/>
</svg>
