<svg width="24" height="24" viewBox="0 0 24 24" fill="none" xmlns="http://www.w3.org/2000/svg">
<path d="M19 10C19 11.191 18.9808 14.7768 17.3716 17.455C16.5109 16.5948 15.8221 15.9336 15.013 15.5302C14.1424 15.0963 13.2253 15 12 15C9.98631 15 8.20174 14.3866 6.94315 13.4426C5.68486 12.4989 5 11.2715 5 10C5 8.72847 5.68486 7.50108 6.94315 6.55736C8.20174 5.61341 9.98631 5 12 5C14.0137 5 15.7983 5.61341 17.0569 6.55736C18.3151 7.50108 19 8.72847 19 10Z" stroke="#323ACC" stroke-width="2"/>
<circle cx="9" cy="11" r="1" fill="#323ACC"/>
<circle cx="12" cy="11" r="1" fill="#323ACC"/>
<circle cx="15" cy="11" r="1" fill="#323ACC"/>
</svg>
