<svg width="13" height="20" viewBox="0 0 13 20" fill="none" xmlns="http://www.w3.org/2000/svg">
<path d="M12 9.9999L12.6186 9.21419C12.8594 9.4038 13 9.69338 13 9.9999C13 10.3064 12.8594 10.596 12.6186 10.7856L12 9.9999ZM0.381411 2.12536C-0.0525267 1.78372 -0.127351 1.15499 0.214287 0.721055C0.555924 0.287117 1.18465 0.212293 1.61859 0.55393L0.381411 2.12536ZM1.61859 19.4459C1.18465 19.7875 0.555923 19.7127 0.214286 19.2787C-0.127352 18.8448 -0.0525274 18.2161 0.381411 17.8744L1.61859 19.4459ZM11.3814 10.7856L0.381411 2.12536L1.61859 0.55393L12.6186 9.21419L11.3814 10.7856ZM0.381411 17.8744L11.3814 9.21419L12.6186 10.7856L1.61859 19.4459L0.381411 17.8744Z" fill="#98ACD1"/>
</svg>
