<svg width="13" height="20" viewBox="0 0 13 20" fill="none" xmlns="http://www.w3.org/2000/svg">
<path d="M1 9.9999L0.38141 9.21419C0.140574 9.4038 -3.9195e-07 9.69338 -3.78552e-07 9.9999C-3.65153e-07 10.3064 0.140575 10.596 0.38141 10.7856L1 9.9999ZM12.6186 2.12536C13.0525 1.78372 13.1274 1.15499 12.7857 0.721055C12.4441 0.287117 11.8153 0.212293 11.3814 0.55393L12.6186 2.12536ZM11.3814 19.4459C11.8153 19.7875 12.4441 19.7127 12.7857 19.2787C13.1274 18.8448 13.0525 18.2161 12.6186 17.8744L11.3814 19.4459ZM1.61859 10.7856L12.6186 2.12536L11.3814 0.55393L0.38141 9.21419L1.61859 10.7856ZM12.6186 17.8744L1.61859 9.21419L0.38141 10.7856L11.3814 19.4459L12.6186 17.8744Z" fill="#98ACD1"/>
</svg>
